<svg xmlns="http://www.w3.org/2000/svg" width="31.178" height="37.073" viewBox="0 0 31.178 37.073">
  <g id="Grupo_934" data-name="Grupo 934" transform="translate(23141.396 -7218.477)">
    <g id="Fiduciario_Iconos_SuperNetFiduciario_ConsultaInstrucciones_290121" transform="translate(-23148.27 7217.513)">
      <path id="Trazado_145" data-name="Trazado 145" d="M37.513,32.2c0,2.927-2.65,5.3-5.92,5.3H7.41V6.8c0-2.924,2.645-5.3,5.911-5.3H37.5Z" fill="none" stroke="#4a4a4a" stroke-linecap="round" stroke-linejoin="round" stroke-width="1.073"/>
      <line id="Línea_171" data-name="Línea 171" x2="19.671" transform="translate(12.156 7.243)" fill="none" stroke="#4a4a4a" stroke-linecap="round" stroke-linejoin="round" stroke-width="1.073"/>
      <path id="Trazado_146" data-name="Trazado 146" d="M24.2,16.18l1.691.9,3.326-4.371" transform="translate(-2.215 -2.67)" fill="none" stroke="#4a4a4a" stroke-linecap="round" stroke-linejoin="round" stroke-width="1.073"/>
      <path id="Trazado_147" data-name="Trazado 147" d="M24.2,27.157l1.691.9,3.326-4.379" transform="translate(-2.215 -5.284)" fill="none" stroke="#4a4a4a" stroke-linecap="round" stroke-linejoin="round" stroke-width="1.073"/>
      <circle id="Elipse_28" data-name="Elipse 28" cx="2.401" cy="2.401" r="2.401" transform="translate(12.163 11.054)" fill="none" stroke="#4a4a4a" stroke-linecap="round" stroke-linejoin="round" stroke-width="1.073"/>
      <circle id="Elipse_29" data-name="Elipse 29" cx="2.401" cy="2.401" r="2.401" transform="translate(12.163 19.178)" fill="none" stroke="#4a4a4a" stroke-linecap="round" stroke-linejoin="round" stroke-width="1.073"/>
      <path id="Trazado_148" data-name="Trazado 148" d="M24.2,37.7l1.691.9,3.326-4.379" transform="translate(-2.215 -7.795)" fill="none" stroke="#4a4a4a" stroke-linecap="round" stroke-linejoin="round" stroke-width="1.073"/>
      <circle id="Elipse_30" data-name="Elipse 30" cx="2.401" cy="2.401" r="2.401" transform="translate(12.163 27.202)" fill="none" stroke="#4a4a4a" stroke-linecap="round" stroke-linejoin="round" stroke-width="1.073"/>
    </g>
  </g>
</svg>
