<svg xmlns="http://www.w3.org/2000/svg" width="35" height="43.744" viewBox="0 0 35 43.744">
  <g id="Grupo_725" data-name="Grupo 725" transform="translate(-1519 -101.128)">
    <g id="_04---Functional" data-name="04---Functional" transform="translate(1515.001 99.128)">
      <g id="FUNC_FUNC125" data-name="FUNC/FUNC125" transform="translate(3.999 2)">
        <path id="Shape" d="M34.622,28.975V22.2A13.791,13.791,0,0,0,26.967,9.809V7.468a5.468,5.468,0,0,0-10.936,0v2.28A13.157,13.157,0,0,0,8.376,21.685v7.29l-3.719,4.96a3.28,3.28,0,0,0,2.625,5.248h6.672a7.618,7.618,0,0,0,15.089,0h6.672a3.28,3.28,0,0,0,2.625-5.248ZM18.218,7.468a3.281,3.281,0,1,1,6.562,0V9a12.211,12.211,0,0,0-1.995-.374,13.388,13.388,0,0,0-4.567.365ZM21.5,43.557a5.476,5.476,0,0,1-5.357-4.374H26.856A5.476,5.476,0,0,1,21.5,43.557Zm15.2-7.166a1.076,1.076,0,0,1-.978.6H7.282a1.092,1.092,0,0,1-.874-1.749L10.345,30a1.094,1.094,0,0,0,.218-.656V21.685a10.958,10.958,0,0,1,6.959-10.194l.053-.022a10.876,10.876,0,0,1,3.913-.722c.361,0,.722.017,1.087.053,5.53.528,9.859,5.536,9.859,11.4V29.34a1.094,1.094,0,0,0,.218.656l3.937,5.25A1.076,1.076,0,0,1,36.694,36.391Z" transform="translate(-3.999 -2)" fill="#4a4a4a" fill-rule="evenodd"/>
      </g>
    </g>
  </g>
</svg>
