<svg id="checked" xmlns="http://www.w3.org/2000/svg" width="139.674" height="139.674" viewBox="0 0 139.674 139.674">
  <circle id="Elipse_4" data-name="Elipse 4" cx="69.837" cy="69.837" r="69.837" transform="translate(0 0)" fill="#32ba7c"/>
  <path id="Trazado_34" data-name="Trazado 34" d="M188.8,211.483l35.91,35.91a69.791,69.791,0,0,0,51.772-67.414V178l-28.2-26Z" transform="translate(-136.808 -110.142)" fill="#0aa06e"/>
  <g id="Grupo_716" data-name="Grupo 716" transform="translate(23.463 34.478)">
    <path id="Trazado_35" data-name="Trazado 35" d="M133.337,230.112a8.248,8.248,0,0,1,0,11.456l-6.389,6.389a8.248,8.248,0,0,1-11.456,0l-27.979-28.2a8.248,8.248,0,0,1,0-11.456l6.389-6.389a8.248,8.248,0,0,1,11.456,0Z" transform="translate(-85.2 -179.112)" fill="#fff"/>
    <path id="Trazado_36" data-name="Trazado 36" d="M215.18,127.513a8.248,8.248,0,0,1,11.456,0l6.389,6.389a8.248,8.248,0,0,1,0,11.456L184.558,193.6a8.248,8.248,0,0,1-11.456,0l-6.389-6.389a8.249,8.249,0,0,1,0-11.456Z" transform="translate(-142.59 -125.2)" fill="#fff"/>
  </g>
</svg>
