<svg xmlns="http://www.w3.org/2000/svg" width="31.439" height="37.598" viewBox="0 0 31.439 37.598">
  <g id="Grupo_935" data-name="Grupo 935" transform="translate(23140.465 -7304.463)">
    <g id="Fiduciario_Iconos_SuperNetFiduciario_ConsultaEdoCuenta_290121" transform="translate(-23147.338 7303.5)">
      <path id="Trazado_143" data-name="Trazado 143" d="M7.41,27.107V6.9A5.117,5.117,0,0,1,9.147,3.086,6.322,6.322,0,0,1,13.375,1.5h24.4V32.648c0,2.97-2.674,5.378-5.973,5.378H7.41Z" transform="translate(0 0)" fill="none" stroke="#4a4a4a" stroke-linecap="round" stroke-linejoin="round" stroke-width="1.073"/>
      <line id="Línea_167" data-name="Línea 167" x2="20.774" transform="translate(12.179 6.377)" fill="#fff" stroke="#4a4a4a" stroke-linecap="round" stroke-linejoin="round" stroke-width="1.073"/>
      <line id="Línea_168" data-name="Línea 168" x2="5.111" transform="translate(26.065 28.987)" fill="#fff" stroke="#4a4a4a" stroke-linecap="round" stroke-linejoin="round" stroke-width="1.073"/>
      <path id="Trazado_144" data-name="Trazado 144" d="M18.647,33.775a4.093,4.093,0,0,1-2.137-.75l.5-.878a3.517,3.517,0,0,0,2.01.67c1.078,0,1.681-.389,1.681-1.072,0-.844-1.105-1.125-2.164-1.594-.958-.422-1.862-.971-1.862-2.184a2.056,2.056,0,0,1,1.969-2.01V24.33h1.105v1.608a3.818,3.818,0,0,1,1.849.717l-.543.844a3.182,3.182,0,0,0-1.862-.61c-.857,0-1.4.362-1.4,1.018s.857,1.058,1.8,1.447c1.092.455,2.278.971,2.278,2.217s-.75,1.969-2.11,2.17V35.5H18.647Z" transform="translate(-0.728 -3.742)" fill="#4a4a4a"/>
      <line id="Línea_169" data-name="Línea 169" x2="5.111" transform="translate(26.065 12.986)" fill="#fff" stroke="#4a4a4a" stroke-linecap="round" stroke-linejoin="round" stroke-width="1.073"/>
      <circle id="Elipse_27" data-name="Elipse 27" cx="1.701" cy="1.701" r="1.701" transform="translate(16.861 11.171)" fill="#fff" stroke="#4a4a4a" stroke-linecap="round" stroke-linejoin="round" stroke-width="1.073"/>
      <line id="Línea_170" data-name="Línea 170" x2="5.111" transform="translate(26.065 20.796)" fill="#fff" stroke="#4a4a4a" stroke-linecap="round" stroke-linejoin="round" stroke-width="1.073"/>
    </g>
  </g>
</svg>
