<svg xmlns="http://www.w3.org/2000/svg" width="32.135" height="36.912" viewBox="0 0 32.135 36.912">
  <g id="Grupo_933" data-name="Grupo 933" transform="translate(23149.486 -7127.641)">
    <g id="Fiduciario_Iconos_SuperNetFiduciario_AltaInstrucciones_290121" transform="translate(-23153.592 7126.544)">
      <path id="Trazado_131" data-name="Trazado 131" d="M31.467,5.284V1.65H9.939A5.272,5.272,0,0,0,4.66,6.922V37.454H26.2a5.272,5.272,0,0,0,5.272-5.272V5.284Z" fill="none" stroke="#4a4a4a" stroke-linecap="round" stroke-linejoin="round" stroke-width="1.108"/>
      <line id="Línea_157" data-name="Línea 157" x2="16.843" transform="translate(9.513 8.955)" fill="none" stroke="#4a4a4a" stroke-linecap="round" stroke-linejoin="round" stroke-width="1.108"/>
      <line id="Línea_158" data-name="Línea 158" x2="16.843" transform="translate(9.513 15.194)" fill="none" stroke="#4a4a4a" stroke-linecap="round" stroke-linejoin="round" stroke-width="1.108"/>
      <line id="Línea_159" data-name="Línea 159" x2="16.843" transform="translate(9.513 21.433)" fill="none" stroke="#4a4a4a" stroke-linecap="round" stroke-linejoin="round" stroke-width="1.108"/>
      <line id="Línea_160" data-name="Línea 160" x2="9.515" transform="translate(9.513 27.68)" fill="none" stroke="#4a4a4a" stroke-linecap="round" stroke-linejoin="round" stroke-width="1.108"/>
      <path id="Trazado_132" data-name="Trazado 132" d="M31.6,40.465a.457.457,0,0,1-.366-.175L26.4,33.975a1.821,1.821,0,0,1,2.887-2.217l1.965,2.567,6.094-10.1a1.821,1.821,0,0,1,3.139,1.836L31.993,40.244a.449.449,0,0,1-.366.221Z" transform="translate(-5.096 -5.183)" fill="none" stroke="#4a4a4a" stroke-linecap="round" stroke-linejoin="round" stroke-width="1.108"/>
    </g>
  </g>
</svg>
