<svg xmlns="http://www.w3.org/2000/svg" width="35.535" height="29.32" viewBox="0 0 35.535 29.32">
  <g id="Grupo_938" data-name="Grupo 938" transform="translate(23142.877 -7537.213)">
    <g id="Grupo_784" data-name="Grupo 784" transform="translate(-22843.424 5633)">
      <path id="Trazado_150" data-name="Trazado 150" d="M27.876,20.73h0l1.732.247a7.474,7.474,0,0,1,0,2.46l-1.732.2h0a6.077,6.077,0,0,1-.6,1.528L28.3,26.552A7.278,7.278,0,0,1,26.552,28.3l-1.383-1.019h0a6.077,6.077,0,0,1-1.506.619h0l-.247,1.732a7.474,7.474,0,0,1-2.46,0l-.226-1.754h0a6.077,6.077,0,0,1-1.528-.6h0L17.819,28.3a7.278,7.278,0,0,1-1.747-1.747l1.019-1.383a6.077,6.077,0,0,1-.6-1.528h0l-1.732-.247a7.474,7.474,0,0,1,0-2.46l1.732-.2h0a6.077,6.077,0,0,1,.6-1.528l-1.019-1.383a7.278,7.278,0,0,1,1.747-1.747L19.2,17.091a6.077,6.077,0,0,1,1.528-.6h0l.247-1.732a7.474,7.474,0,0,1,2.46,0l.2,1.732h0a6.077,6.077,0,0,1,1.528.6l1.383-1.019A7.278,7.278,0,0,1,28.3,17.819L27.279,19.2A6.077,6.077,0,0,1,27.876,20.73Z" transform="translate(-303.879 1896.81)" fill="none" stroke="#444" stroke-linecap="round" stroke-linejoin="round" stroke-width="1.082"/>
      <path id="Trazado_151" data-name="Trazado 151" d="M28.508,8.9A14.039,14.039,0,0,0,5.54,19.744a14.432,14.432,0,0,0,.2,2.329" transform="translate(-301.397 1899.25)" fill="none" stroke="#444" stroke-linecap="round" stroke-linejoin="round" stroke-width="1.082"/>
      <path id="Trazado_152" data-name="Trazado 152" d="M12,34.355A14.046,14.046,0,0,0,35.085,21" transform="translate(-303.155 1895.084)" fill="none" stroke="#444" stroke-linecap="round" stroke-linejoin="round" stroke-width="1.082"/>
      <path id="Trazado_153" data-name="Trazado 153" d="M45.424,27.734s-2.089-6.994-3.464-7.125-4.76,6.332-4.76,6.332" transform="translate(-310.015 1895.19)" fill="none" stroke="#444" stroke-linecap="round" stroke-linejoin="round" stroke-width="1.082"/>
      <path id="Trazado_154" data-name="Trazado 154" d="M9.717,19.131s-3.683,6.492-5.058,6.346S1.5,18.25,1.5,18.25" transform="translate(-300.297 1895.832)" fill="none" stroke="#444" stroke-linecap="round" stroke-linejoin="round" stroke-width="1.082"/>
      <path id="Trazado_155" data-name="Trazado 155" d="M26.822,23.911a2.911,2.911,0,1,0-2.911,2.911A2.911,2.911,0,0,0,26.822,23.911Z" transform="translate(-305.605 1895.084)" fill="none" stroke="#444" stroke-linecap="round" stroke-linejoin="round" stroke-width="1.082"/>
    </g>
  </g>
</svg>
