<svg xmlns="http://www.w3.org/2000/svg" width="32.134" height="36.912" viewBox="0 0 32.134 36.912">
  <defs>
    <style>
      .cls-1 {
        fill: none;
        stroke: #ec0b18;
        stroke-linecap: round;
        stroke-linejoin: round;
        stroke-width: 1.108px;
      }
    </style>
  </defs>
  <g id="Fiduciario_Iconos_SuperNetFiduciario_AltaInstrucciones_290121" transform="translate(-4.106 -1.096)">
    <path id="Trazado_131" data-name="Trazado 131" class="cls-1" d="M31.467,5.284V1.65H9.939A5.272,5.272,0,0,0,4.66,6.922V37.454H26.2a5.272,5.272,0,0,0,5.272-5.272V5.284Z"/>
    <line id="Línea_157" data-name="Línea 157" class="cls-1" x2="16.843" transform="translate(9.513 8.955)"/>
    <line id="Línea_158" data-name="Línea 158" class="cls-1" x2="16.843" transform="translate(9.513 15.194)"/>
    <line id="Línea_159" data-name="Línea 159" class="cls-1" x2="16.843" transform="translate(9.513 21.433)"/>
    <line id="Línea_160" data-name="Línea 160" class="cls-1" x2="9.515" transform="translate(9.513 27.68)"/>
    <path id="Trazado_132" data-name="Trazado 132" class="cls-1" d="M31.6,40.465a.457.457,0,0,1-.366-.175L26.4,33.975a1.821,1.821,0,0,1,2.887-2.217l1.965,2.567,6.094-10.1a1.821,1.821,0,0,1,3.139,1.836L31.993,40.244a.449.449,0,0,1-.366.221Z" transform="translate(-5.096 -5.183)"/>
  </g>
</svg>
