<svg xmlns="http://www.w3.org/2000/svg" width="35" height="35" viewBox="0 0 35 35">
  <g id="_06---System" data-name="06---System" transform="translate(-2 -2)">
    <g id="SYS_SYS001" data-name="SYS/SYS001" transform="translate(2 2)">
      <path id="Combined-Shape" d="M19.5,2A17.47,17.47,0,0,1,32.472,31.2a.853.853,0,0,1-.2.216,17.417,17.417,0,0,1-25.552,0,.853.853,0,0,1-.2-.216A17.47,17.47,0,0,1,19.5,2Zm6.125,25.014a16.824,16.824,0,0,0-3.576.528h0l-.586.15a8.631,8.631,0,0,1-1.963.364,5.973,5.973,0,0,1-1.61-.279h0l-.274-.073q-.81-.214-1.637-.348h0l-.489-.082a14.543,14.543,0,0,0-2.115-.26c-2.8,0-5.25,1.35-5.25,2.889h0v.461a15.684,15.684,0,0,0,22.75,0h0V29.9C30.875,28.256,28.618,27.014,25.625,27.014ZM19.5,3.75A15.724,15.724,0,0,0,6.682,28.618c.847-1.931,3.51-3.355,6.693-3.355a15.38,15.38,0,0,1,2.409.285h0l.473.079q.911.146,1.8.383h0l.291.079a4.522,4.522,0,0,0,1.148.216A7.934,7.934,0,0,0,21.02,26h0l.622-.158a18.807,18.807,0,0,1,3.983-.576c3.353,0,5.917,1.344,6.715,3.325A15.726,15.726,0,0,0,19.5,3.75Zm0,2.8A6.878,6.878,0,0,1,24.62,8.864a5.064,5.064,0,0,1,1.189,4.145h0l-.677,5.413a5.533,5.533,0,0,1-5.636,4.85,5.522,5.522,0,0,1-5.624-4.827h0l-.684-5.468A5.049,5.049,0,0,1,14.38,8.86,6.865,6.865,0,0,1,19.5,6.55Zm0,1.75a5.065,5.065,0,0,0-3.782,1.694,3.314,3.314,0,0,0-.794,2.734h0l.684,5.477A3.773,3.773,0,0,0,19.5,21.523a3.784,3.784,0,0,0,3.9-3.34h0l.678-5.422A3.331,3.331,0,0,0,23.287,10,5.079,5.079,0,0,0,19.5,8.3Z" transform="translate(-2 -2)" fill="#4a4a4a" fill-rule="evenodd"/>
    </g>
  </g>
</svg>
