<svg xmlns="http://www.w3.org/2000/svg" width="34.053" height="34.117" viewBox="0 0 34.053 34.117">
  <g id="_04---Functional" data-name="04---Functional" transform="translate(-2.986 -3)">
    <g id="FUNC_FUNC063" data-name="FUNC/FUNC063" transform="translate(2.985 3)">
      <path id="Combined-Shape" d="M30.819,20.964a.9.9,0,0,1,.9.9h0v1.607l.785.456,1.4-.8a.9.9,0,0,1,1.225.328h0l1.795,3.108a.9.9,0,0,1-.328,1.225h0l-1.381.8v.92l1.381.8a.9.9,0,0,1,.328,1.225h0l-1.795,3.108a.892.892,0,0,1-1.225.328h0l-1.393-.8-.787.456V36.22a.9.9,0,0,1-.9.9h-3.59a.9.9,0,0,1-.9-.9h0V34.612l-.785-.456-1.393.8a.894.894,0,0,1-1.225-.328h0l-1.795-3.108a.9.9,0,0,1,.328-1.225h0l1.381-.8v-.92l-1.381-.8a.9.9,0,0,1-.328-1.225h0l1.795-3.108a.9.9,0,0,1,1.225-.328h0l1.393.8.785-.456V21.861a.9.9,0,0,1,.9-.9h3.59Zm-.9,1.795H28.127v1.227a.9.9,0,0,1-.447.776h0L26,25.736a.9.9,0,0,1-.9,0h0l-1.067-.615-.9,1.555,1.053.608a.9.9,0,0,1,.449.776h0v1.958a.9.9,0,0,1-.449.776h0l-1.053.608.9,1.555,1.067-.615a.9.9,0,0,1,.9,0h0l1.681.976a.9.9,0,0,1,.447.776h0v1.227h1.795V34.1a.9.9,0,0,1,.447-.776h0l1.683-.976a.892.892,0,0,1,.9,0h0l1.067.615.9-1.555-1.053-.608a.9.9,0,0,1-.449-.776h0V28.061a.9.9,0,0,1,.449-.776h0l1.053-.608-.9-1.555-1.067.615a.892.892,0,0,1-.9,0h0l-1.683-.975a.9.9,0,0,1-.447-.776h0ZM3.883,3a.886.886,0,0,1,.369.084c.009,0,.018,0,.027,0h0L7.793,4.773l3.512-1.619a.891.891,0,0,1,.75,0h0l3.519,1.622,3.519-1.622a.891.891,0,0,1,.75,0h0l3.512,1.619,3.514-1.684a.927.927,0,0,1,1.294.809h0V16.528a.9.9,0,1,1-1.795,0h0V5.319L23.752,6.573a.9.9,0,0,1-.762.006h0L19.47,4.957,15.95,6.579a.891.891,0,0,1-.75,0h0L11.681,4.957,8.161,6.579A.9.9,0,0,1,7.4,6.573h0L4.78,5.318V31.282l2.626-1.209a.9.9,0,0,1,.75,0h0l3.521,1.621L15.2,30.073a.9.9,0,0,1,.75,0h0l3.9,1.795a.9.9,0,1,1-.75,1.63h0l-3.523-1.621L12.052,33.5a.9.9,0,0,1-.75,0h0L7.781,31.876,4.258,33.5a.9.9,0,0,1-1.272-.815h0V3.9A.9.9,0,0,1,3.883,3ZM29.024,27.219A1.778,1.778,0,1,1,27.247,29,1.78,1.78,0,0,1,29.024,27.219ZM18.267,20.948a.9.9,0,1,1,0,1.795H9.293a.9.9,0,0,1,0-1.795h8.974Zm3.59-5.384a.9.9,0,0,1,0,1.795H9.293a.9.9,0,0,1,0-1.795H21.857Zm0-5.384a.9.9,0,0,1,0,1.795H9.293a.9.9,0,0,1,0-1.795H21.857Z" transform="translate(-2.985 -3)" fill="#444" fill-rule="evenodd"/>
    </g>
  </g>
</svg>
