<svg xmlns="http://www.w3.org/2000/svg" width="16" height="19" viewBox="0 0 16 19">
  <g id="_03---Documents" data-name="03---Documents" transform="translate(-4 -2)">
    <g id="DOC_DOC002" data-name="DOC/DOC002">
      <path id="Combined-Shape" d="M16.5,2a.5.5,0,0,1,.5.5h0V5h2.5a.5.5,0,0,1,.5.5h0v15a.5.5,0,0,1-.5.5H7.5a.5.5,0,0,1-.5-.5H7V18H4.5a.5.5,0,0,1-.5-.5H4V2.5A.5.5,0,0,1,4.5,2h12ZM19,6H8V20H19ZM16,3H5V17H7V5.5A.5.5,0,0,1,7.5,5H16Zm.5,11a.5.5,0,0,1,0,1h-6a.5.5,0,0,1,0-1h6Zm0-3a.5.5,0,0,1,0,1h-6a.5.5,0,0,1,0-1h6Zm0-3a.5.5,0,0,1,0,1h-6a.5.5,0,0,1,0-1h6Z" fill-rule="evenodd"/>
    </g>
  </g>
</svg>
