<svg xmlns="http://www.w3.org/2000/svg" width="18" height="19" viewBox="0 0 18 19">
  <g id="_03---Documents" data-name="03---Documents" transform="translate(-3 -3)">
    <g id="DOC_DOC015" data-name="DOC/DOC015">
      <path id="Combined-Shape" d="M13.477,3l.011,0L13.5,3h0a.492.492,0,0,1,.4.219h0L18.83,8.146a.494.494,0,0,1,.17.37h0V11h.013A1.99,1.99,0,0,1,21,12.987h0v4.025A1.99,1.99,0,0,1,19.013,19H19v2.5a.5.5,0,0,1-.5.5H5.5a.5.5,0,0,1-.5-.5H5V19H4.987A1.99,1.99,0,0,1,3,17.013H3V12.987A1.99,1.99,0,0,1,4.987,11H5V3.5A.5.5,0,0,1,5.5,3h7.977ZM18,19H6v2H18Zm1.013-7H4.987A.989.989,0,0,0,4,12.987H4v4.025A.989.989,0,0,0,4.987,18H19.013A.989.989,0,0,0,20,17.013h0V12.987A.989.989,0,0,0,19.013,12Zm-3.79.955a2.714,2.714,0,0,1,1.017.18c-.008.108-.019.211-.034.307s-.033.191-.056.289a2.472,2.472,0,0,0-.455-.127,2.579,2.579,0,0,0-.438-.042.824.824,0,0,0-.517.13.413.413,0,0,0-.163.343.5.5,0,0,0,.059.253.514.514,0,0,0,.178.174,1.852,1.852,0,0,0,.325.151h0l.337.13a1.724,1.724,0,0,1,.672.43,1.011,1.011,0,0,1,.244.711,1.091,1.091,0,0,1-.168.6,1.107,1.107,0,0,1-.5.413,1.968,1.968,0,0,1-.81.149,2.723,2.723,0,0,1-.593-.065,1.782,1.782,0,0,1-.48-.171c0-.12.012-.227.022-.32a2.256,2.256,0,0,1,.057-.292,1.95,1.95,0,0,0,.48.174,2.281,2.281,0,0,0,.514.062.964.964,0,0,0,.537-.129.419.419,0,0,0,.193-.371.448.448,0,0,0-.067-.253.63.63,0,0,0-.2-.183,2.986,2.986,0,0,0-.382-.183h0l-.32-.135a1.594,1.594,0,0,1-.624-.43,1.05,1.05,0,0,1-.219-.7,1.073,1.073,0,0,1,.146-.564.993.993,0,0,1,.458-.388A1.892,1.892,0,0,1,15.223,12.955Zm-6.676.1.742,1.254.719-1.254h.82l-1.168,1.86,1.258,2.028h-.831l-.826-1.382-.826,1.382H7.609L8.9,14.955l-1.18-1.9Zm3.6-.05v3.3h1.377c0,.09-.012.193-.022.312s-.024.226-.04.323H11.418V13.1a2.94,2.94,0,0,1,.346-.067,2.862,2.862,0,0,1,.385-.027ZM13,4H6v7H18V9.014L13.521,9a.5.5,0,0,1-.5-.5h0Zm1,.736L14.021,8l3.26.01Z" fill-rule="evenodd"/>
    </g>
  </g>
</svg>
