<svg xmlns="http://www.w3.org/2000/svg" width="777" height="348.543" viewBox="0 0 777 348.543">
  <g id="Grupo_2178" data-name="Grupo 2178" transform="translate(-4187 -1473)">
    <path id="Trazado_1" data-name="Trazado 1" d="M3164.78,456.825l2.475-14.239a232.08,232.08,0,0,0,42.723,4.539,67.555,67.555,0,0,0,14.447-1.446,49.115,49.115,0,0,0,12.5-4.539,22.218,22.218,0,0,0,9.187-8.975,28.531,28.531,0,0,0,3.3-14.14,37.9,37.9,0,0,0-.516-6.6,15.153,15.153,0,0,0-1.958-5.257q-1.446-2.371-2.683-4.026a12.347,12.347,0,0,0-4.235-3.206q-3-1.548-5.055-2.372a53.842,53.842,0,0,0-6.824-1.923l-7.594-1.776-8.9-2.077a5.777,5.777,0,0,0-1.237-.208q-27.45-6.19-36.739-14.14t-9.3-25.282a39.838,39.838,0,0,1,3.92-18.368,28.379,28.379,0,0,1,11.249-11.86,52.564,52.564,0,0,1,16.409-5.988,112.4,112.4,0,0,1,21.054-1.75,175.355,175.355,0,0,1,44.377,5.985L3258.7,333a166.069,166.069,0,0,0-42.1-5.985q-17.335,0-26.208,5.049t-8.879,18.021q0,10.922,7.125,15.656t30.876,9.886l13.082,3.081q4.894,1.148,10.562,3.016a39.165,39.165,0,0,1,8.866,3.943,50.681,50.681,0,0,1,6.488,5.081,18.7,18.7,0,0,1,4.844,6.843,45.994,45.994,0,0,1,2.474,9.027,67.742,67.742,0,0,1,.927,11.822,44.483,44.483,0,0,1-3.206,17.339,34.04,34.04,0,0,1-8.481,12.37,44.47,44.47,0,0,1-12.591,7.844,61.811,61.811,0,0,1-14.858,4.231,107.87,107.87,0,0,1-16,1.135A309.671,309.671,0,0,1,3164.78,456.825Z" transform="translate(1314 1260)" fill="#333"/>
    <path id="Trazado_2" data-name="Trazado 2" d="M3295.835,371.173l-1.859-11.764a213.377,213.377,0,0,1,39.835-5.161q43.139,0,43.133,36.117V459.3h-12.787l-.827-9.3q-25.385,11.142-43.749,11.145a42.628,42.628,0,0,1-17.339-3.2,24.813,24.813,0,0,1-11.559-10.732,37.878,37.878,0,0,1-4.33-19.092q0-16.923,11.145-24.362t36.739-7.431q11.139,0,26,1.446v-7.431q0-23.527-30.132-23.528A233.057,233.057,0,0,0,3295.835,371.173Zm64.4,67.281V407.495q-14.86-1.443-25.176-1.442a93.068,93.068,0,0,0-16.736,1.25,21.389,21.389,0,0,0-10,4.125,14.888,14.888,0,0,0-4.648,6.5,29.723,29.723,0,0,0-1.238,9.392q0,21.259,20.836,21.259Q3338.149,448.568,3360.23,438.454Z" transform="translate(1314 1260)" fill="#333"/>
    <path id="Trazado_3" data-name="Trazado 3" d="M3411.211,371.173l-1.866-11.764a213.475,213.475,0,0,1,39.842-5.161q43.129,0,43.133,36.117V459.3h-12.8l-.827-9.3q-25.391,11.142-43.755,11.145a42.623,42.623,0,0,1-17.339-3.2,24.809,24.809,0,0,1-11.559-10.732,37.871,37.871,0,0,1-4.331-19.092q0-16.923,11.149-24.362t36.735-7.431q11.15,0,26.007,1.446v-7.431q0-23.527-30.132-23.528A233.152,233.152,0,0,0,3411.211,371.173Zm64.393,67.281V407.495q-14.865-1.443-25.18-1.442a93.04,93.04,0,0,0-16.717,1.237,21.386,21.386,0,0,0-10.01,4.125,14.909,14.909,0,0,0-4.642,6.5,29.532,29.532,0,0,0-1.244,9.392q0,21.259,20.836,21.259Q3453.518,448.567,3475.6,438.454Z" transform="translate(1314 1260)" fill="#333"/>
    <path id="Trazado_4" data-name="Trazado 4" d="M3571.157,459.3h-20.634l-41.281-103.2h17.134l34.45,89.467,34.276-89.467h17.14Z" transform="translate(1314 1260)" fill="#333"/>
    <path id="Trazado_5" data-name="Trazado 5" d="M3650,337.121h-17.544V315.878H3650Zm-.417,122.185h-16.717v-103.2h16.717Z" transform="translate(1314 1260)" fill="#333"/>
    <path id="Trazado_6" data-name="Trazado 6" d="M3307.371,507.642h-15.838V516.4H3310.2v4.615H3286.34V489.55H3310.2v4.616h-18.669v9.072h15.838Z" transform="translate(1314 1260)" fill="#076aaa"/>
    <path id="Trazado_7" data-name="Trazado 7" d="M3370.761,521.015H3369.4l-21.762-21.082v21.082h-5.193V489.55h1.362l21.763,20.765V489.55h5.193Z" transform="translate(1314 1260)" fill="#076aaa"/>
    <path id="Trazado_8" data-name="Trazado 8" d="M3426.178,507.642h-15.836V516.4h18.669v4.615h-23.862V489.55h23.862v4.616h-18.669v9.072h15.836Z" transform="translate(1314 1260)" fill="#076aaa"/>
    <path id="Trazado_9" data-name="Trazado 9" d="M3461.262,489.55H3474.9c7.918,0,12.742,3.827,12.742,10.646a9.85,9.85,0,0,1-6.555,9.754v.321l7.812,10.014v.734h-5.77l-7.693-9.963h-8.976v9.963h-5.193Zm13.464,4.616h-8.287v12.377h8.607c4.35,0,7.235-1.943,7.235-6.136,0-4.145-2.94-6.241-7.556-6.241Z" transform="translate(1314 1260)" fill="#076aaa"/>
    <path id="Trazado_10" data-name="Trazado 10" d="M3544.407,507.639h-10.213v-4.4h15.627v2.674c0,9.44-5.3,15.835-14.841,15.835a16.441,16.441,0,1,1-.344-32.88c.15,0,.3,0,.449,0a16.026,16.026,0,0,1,11.745,4.036l-3.09,3.984a13.191,13.191,0,0,0-8.706-3.093,10.921,10.921,0,0,0-11.182,10.654c-.008.295,0,.591.014.886a10.748,10.748,0,0,0,10.038,11.414q.513.033,1.028.017a8.794,8.794,0,0,0,9.466-8.063,8.958,8.958,0,0,0,.025-.912Z" transform="translate(1314 1260)" fill="#076aaa"/>
    <path id="Trazado_11" data-name="Trazado 11" d="M3587.133,521.015h-5.192V489.55h5.192Z" transform="translate(1314 1260)" fill="#076aaa"/>
    <path id="Trazado_12" data-name="Trazado 12" d="M3633.059,489.55h1L3650,521.015h-5.927l-2.359-4.773H3625.4l-2.308,4.773h-5.872Zm.683,9.6h-.321l-5.661,12.326-.32.525h12.219l-.32-.525Z" transform="translate(1314 1260)" fill="#076aaa"/>
    <rect id="Rectángulo_2" data-name="Rectángulo 2" width="7.187" height="348.543" transform="translate(4419.978 1473)" fill="#333"/>
    <path id="Trazado_13" data-name="Trazado 13" d="M3001.33,219.1l-96.854,41.082a47.6,47.6,0,0,0-29.35,46.685,52.089,52.089,0,0,0,6.251,22.949,51.236,51.236,0,0,0,10.6,13.505,53.779,53.779,0,0,0,16.047,10.042l74.442,30.132h.029c21.8,8.835,37.1,24.285,38.223,37.287.1-1.712.128-3.443.064-5.206a51.847,51.847,0,0,0-32.908-46.48l-74.432-30.132a36.629,36.629,0,0,1-12-7.754,35.561,35.561,0,0,1-8.571-13.361,36.741,36.741,0,0,1-2.18-11.027,32.981,32.981,0,0,1,20.291-32.276l94.428-40.053a44.844,44.844,0,0,1-27.032,45.711l-6.09,2.564-65.662,27.85a16.027,16.027,0,0,0,20.659,8.36l57.594-24.43a59.444,59.444,0,0,0,33.658-37.466,62.333,62.333,0,0,0-3.055-44Z" transform="translate(1314 1260)" fill="#076aaa"/>
    <path id="Trazado_14" data-name="Trazado 14" d="M2892.859,555.443l96.855-41.069a47.6,47.6,0,0,0,29.349-46.686,52.094,52.094,0,0,0-6.25-22.948,51.223,51.223,0,0,0-10.6-13.505,53.769,53.769,0,0,0-16.047-10.043l-74.445-30.132h-.026c-21.8-8.834-37.1-24.285-38.223-37.286-.1,1.712-.128,3.443-.064,5.206a51.849,51.849,0,0,0,32.908,46.48l74.432,30.131a36.645,36.645,0,0,1,12,7.755,35.565,35.565,0,0,1,8.571,13.36,36.743,36.743,0,0,1,2.177,11.027A32.983,32.983,0,0,1,2983.2,500.01l-94.428,40.053a44.844,44.844,0,0,1,27.032-45.711l6.09-2.564,65.659-27.85a16.028,16.028,0,0,0-20.66-8.36l-57.59,24.429a59.416,59.416,0,0,0-33.658,37.466,62.323,62.323,0,0,0,3.055,44Z" transform="translate(1314 1260)" fill="#309bcc"/>
  </g>
</svg>
